Coordinates
version=1
nRows=7
nColumns=40
inDegrees=yes

Units are S.I. units (second, meters, Newtons, ...)
Angles are in degrees.

endheader
time	pelvis_tilt	pelvis_list	pelvis_rotation	pelvis_tx	pelvis_ty	pelvis_tz	hip_flexion_r	hip_adduction_r	hip_rotation_r	knee_angle_r	knee_angle_r_beta	ankle_angle_r	subtalar_angle_r	mtp_angle_r	hip_flexion_l	hip_adduction_l	hip_rotation_l	knee_angle_l	knee_angle_l_beta	ankle_angle_l	subtalar_angle_l	mtp_angle_l	lumbar_extension	lumbar_bending	lumbar_rotation	arm_flex_r	arm_add_r	arm_rot_r	elbow_flex_r	pro_sup_r	wrist_flex_r	wrist_dev_r	arm_flex_l	arm_add_l	arm_rot_l	elbow_flex_l	pro_sup_l	wrist_flex_l	wrist_dev_l
     43.66000000	     -3.52144180	     -6.32150186	      0.47397313	      1.00833729	      0.92366689	      0.46041258	     19.01378138	      3.87608073	    -13.58461580	     19.15038349	     19.15038349	      5.73955215	     -2.42625044	     -4.65114491	     12.21736206	    -12.17669969	     -3.67906031	     52.42793082	     52.42793082	      8.83788755	    -18.68859942	     -0.98001096	     -8.12049296	      8.19915232	      2.02947980	     -1.92244717	    -10.34018856	     -9.29442935	     25.79508533	     46.76570751	      0.00000000	      0.00000000	     15.79078435	    -10.09326091	     -3.02523337	     64.73787491	     47.12716494	      0.00000000	      0.00000000
     43.67228571	     -3.37911512	     -6.36766755	      0.93397210	      1.00819953	      0.92458231	      0.46186411	     18.16293440	      3.96963446	    -14.06006325	     18.81293523	     18.81293523	      6.05144238	     -2.13903457	     -5.01610697	     14.58897520	    -12.18033980	     -2.22888467	     56.51822225	     56.51822225	      9.39397012	    -18.63697739	      6.48824047	     -8.10066963	      8.18037695	      2.42239819	     -0.86311018	    -10.73316000	     -8.10474345	     27.39763466	     46.59356912	      0.00000000	      0.00000000	     16.09698106	     -9.24662270	     -2.35042729	     59.76624752	     47.01479125	      0.00000000	      0.00000000
     43.68457143	     -3.23367819	     -6.50752306	      1.38098998	      1.00796990	      0.92536279	      0.46346051	     17.28339559	      4.22200182	    -14.43580508	     18.40399067	     18.40399067	      6.37466505	     -1.97463756	     -5.15647713	     16.77234472	    -12.37901343	     -1.07982335	     59.87340112	     59.87340112	      8.87444465	    -18.70788175	     10.05727144	     -8.16249153	      8.20140894	      2.50599582	      0.34269040	    -11.13825801	     -7.10994220	     29.33324129	     46.42804584	      0.00000000	      0.00000000	     15.53944796	     -8.84874188	     -1.60288050	     56.85667038	     46.91376256	      0.00000000	      0.00000000
     43.69685714	     -3.11175918	     -6.60100918	      1.80333363	      1.00757854	      0.92610895	      0.46504699	     16.44117980	      4.44898393	    -14.73748666	     17.99316696	     17.99316696	      6.67601940	     -1.85973415	     -5.22736636	     18.83960526	    -12.49784603	     -0.08126366	     62.59951899	     62.59951899	      8.20341427	    -18.79942571	     12.09875922	     -8.20204305	      8.15160144	      2.58608289	      1.76463933	    -11.53805376	     -6.33087273	     30.95774148	     46.30247844	      0.00000000	      0.00000000	     15.07066483	     -8.43723112	     -1.02964525	     53.58205769	     46.81862448	      0.00000000	      0.00000000
     43.70914286	     -3.02153202	     -6.72151614	      2.19630260	      1.00696808	      0.92673843	      0.46669826	     15.67206467	      4.72980903	    -14.97047092	     17.61350927	     17.61350927	      6.96096185	     -1.83406480	     -5.20532485	     20.82650149	    -12.66614430	      0.74930215	     64.71117137	     64.71117137	      7.36731628	    -18.89713488	     12.33700060	     -8.27239098	      8.09957489	      2.46553232	      3.62007148	    -11.78694082	     -6.31943324	     32.07236071	     46.26842640	      0.00000000	      0.00000000	     13.87087406	     -8.26812880	     -0.71422732	     52.12403972	     46.76015366	      0.00000000	      0.00000000
     43.72142857	     -2.87364586	     -6.62156714	      2.53985728	      1.00620448	      0.92761939	      0.46826542	     14.83610529	      4.81292150	    -14.97260092	     17.21579251	     17.21579251	      7.25161342	     -1.92835841	     -5.15727053	     22.61502524	    -12.51210097	      1.41609630	     66.23885285	     66.23885285	      7.43060214	    -18.93985023	     13.99806564	     -8.38254992	      7.79924296	      2.33772726	      5.23414041	    -12.09235869	     -5.67363030	     34.20513754	     46.14218040	      0.00000000	      0.00000000	     13.69966209	     -8.07661704	     -0.06812535	     47.56626855	     46.64473766	      0.00000000	      0.00000000
     43.73371429	     -2.85949737	     -6.60399943	      2.87296786	      1.00518537	      0.92824188	      0.46985195	     14.17433080	      4.98390696	    -15.00214104	     16.82698373	     16.82698373	      7.51699889	     -2.06655400	     -5.05489986	     24.50640723	    -12.45820580	      1.97858218	     67.20774368	     67.20774368	      7.54324022	    -18.97310411	     14.74217940	     -8.39817897	      7.56386940	      2.35727881	      6.83076454	    -12.42541136	     -5.28996867	     36.32418239	     46.03831475	      0.00000000	      0.00000000	     13.08041942	     -7.88762430	      0.48113484	     44.54147264	     46.55059746	      0.00000000	      0.00000000
